HIERARCHY
ROOT root
{
	OFFSET	0	13.1	24.9
	CHANNELS 6  Xposition Yposition Zposition Xrotation Yrotation Zrotation
	JOINT spine_1
	{
		OFFSET	0	9.99999	0
		CHANNELS 3  Xrotation Yrotation Zrotation
		JOINT spine_2
		{
			OFFSET	0	112	-10
			CHANNELS 3  Xrotation Yrotation Zrotation
			JOINT spine_3
			{
				OFFSET	0	206.5	19.3
				CHANNELS 3  Xrotation Yrotation Zrotation
				JOINT spine_4
				{
					OFFSET	0	110.4	14.6
					CHANNELS 3  Xrotation Yrotation Zrotation
					JOINT neck_1
					{
						OFFSET	0	71.8	-50.3
						CHANNELS 3  Xrotation Yrotation Zrotation
						JOINT neck_2
						{
							OFFSET	0	86.2	-25.8
							CHANNELS 3  Xrotation Yrotation Zrotation
							JOINT head_ee
							{
								OFFSET	0	179.8	-8.7
								CHANNELS 3  Xrotation Yrotation Zrotation
								End Site
								{
									OFFSET	1	0	0
								}
							}
						}
					}
					JOINT left_clavicle
					{
						OFFSET	-43.2	22.4	-70.8
						CHANNELS 3  Xrotation Yrotation Zrotation
						JOINT left_shoulder
						{
							OFFSET	-93.9	-5.79999	48.7
							CHANNELS 3  Xrotation Yrotation Zrotation
							JOINT left_elbow
							{
								OFFSET	-291.4	-30.8	15.2
								CHANNELS 3  Xrotation Yrotation Zrotation
								JOINT left_lowarm_twist
								{
									OFFSET	-110.7	-3.89999	13.6
									CHANNELS 3  Xrotation Yrotation Zrotation
									JOINT left_hand
									{
										OFFSET	-110.7	-3.89999	13.6
										CHANNELS 3  Xrotation Yrotation Zrotation
										JOINT left_ee
										{
											OFFSET	-80.8	-5.10001	12.1
											CHANNELS 3  Xrotation Yrotation Zrotation
											End Site
											{
												OFFSET	1	0	0
											}
										}
									}
								}
							}
						}
					}
					JOINT right_clavicle
					{
						OFFSET	43.2	22.4	-70.8
						CHANNELS 3  Xrotation Yrotation Zrotation
						JOINT right_shoulder
						{
							OFFSET	93.9	-5.79999	48.7
							CHANNELS 3  Xrotation Yrotation Zrotation
							JOINT right_elbow
							{
								OFFSET	291.4	-30.8	15.2
								CHANNELS 3  Xrotation Yrotation Zrotation
								JOINT right_lowarm_twist
								{
									OFFSET	110.7	-3.89999	13.6
									CHANNELS 3  Xrotation Yrotation Zrotation
									JOINT right_hand
									{
										OFFSET	110.7	-3.89999	13.6
										CHANNELS 3  Xrotation Yrotation Zrotation
										JOINT right_ee
										{
											OFFSET	80.8	-5.10001	12.1
											CHANNELS 3  Xrotation Yrotation Zrotation
											End Site
											{
												OFFSET	1	0	0
											}
										}
									}
								}
							}
						}
					}
				}
			}
		}
	}
	JOINT left_hip
	{
		OFFSET	-82.8	-127.5	0.300001
		CHANNELS 3  Xrotation Yrotation Zrotation
		JOINT left_knee
		{
			OFFSET	-28.2	-396.7	2.2
			CHANNELS 3  Xrotation Yrotation Zrotation
			JOINT left_ankle
			{
				OFFSET	-11.7	-411.3	35.4
				CHANNELS 3  Xrotation Yrotation Zrotation
				JOINT left_toes
				{
					OFFSET	0	-60	-88.6
					CHANNELS 3  Xrotation Yrotation Zrotation
					JOINT left_foot_ee
					{
						OFFSET	-22.5	-16.5	-42.2
						CHANNELS 3  Xrotation Yrotation Zrotation
						End Site
						{
							OFFSET	1	0	0
						}
					}
				}
			}
		}
	}
	JOINT right_hip
	{
		OFFSET	82.8	-127.5	0.300001
		CHANNELS 3  Xrotation Yrotation Zrotation
		JOINT right_knee
		{
			OFFSET	28.2	-396.7	2.2
			CHANNELS 3  Xrotation Yrotation Zrotation
			JOINT right_ankle
			{
				OFFSET	11.7	-411.3	35.4
				CHANNELS 3  Xrotation Yrotation Zrotation
				JOINT right_toes
				{
					OFFSET	0	-60	-88.6
					CHANNELS 3  Xrotation Yrotation Zrotation
					JOINT right_foot_ee
					{
						OFFSET	22.5	-16.5	-42.2
						CHANNELS 3  Xrotation Yrotation Zrotation
						End Site
						{
							OFFSET	1	0	0
						}
					}
				}
			}
		}
	}
}
MOTION
Frames: 8
Frame Time: 0.02
1372.05 701.618 -1475.22 -15.183569228 5.66927564665 1.20688078522 6.72307 0.217128 0.973725 6.72359 0.15473 0.985566 6.72554 0.0611831 0.99576 6.72422 0.217669 0.973604 -20.096 11.4178 3.05725 -20.6969 20.4694 7.76726 -0.0 0.0 -0.0 2.86616 -0.24516 5.50605 19.0722 20.7877 71.498 1.91054 -43.4189 0.760723 75.4434 -3.3239 -8.33233 2.80196 30.2365 27.8139 -0.0 0.0 -0.0 10.7529 7.07097 -21.4802 14.0277 -67.0801 -33.6751 0.610274 16.8208 -0.0902314 11.1903 -0.257885 1.40393 -0.211531 11.1434 6.17356 0.0 0.0 0.0 -0.640433 47.6018 10.2243 -15.965 0.321863 2.42094 41.8816 19.2585 -5.18105 37.4225 -0.0 -0.0 -0.0 0.0 -0.0 53.8023 26.3935 -13.5467 -6.08572 -0.202301 -0.911632 -17.3754 10.5058 -2.7632 12.5013 -0.0 -0.0 0.0 0.0 0.0 
1332.15574115 696.957 -1536.34014764 -17.066504943 6.32131604914 0.659008994363 6.83385 0.125364 0.987444 6.83439 0.0622798 0.993419 6.83473 -0.0297135 0.994926 6.83337 0.127782 0.987134 -17.1918 12.9299 2.0755 -17.8429 23.6925 6.89961 -0.0 0.0 -0.0 5.13076 1.55198 9.95988 2.47044 6.54361 61.3414 2.90376 -55.1823 1.51771 74.5098 -3.22126 -8.2705 4.00356 31.021 35.6994 -0.0 0.0 -0.0 10.0581 0.0651104 -19.7782 24.3833 -62.1611 -25.6237 0.634322 17.4441 -0.0973157 18.2387 -0.278119 2.30341 -1.70378 -13.8742 4.95769 0.0 0.0 0.0 -8.01134 47.4036 16.5395 -12.673 0.310974 1.91604 35.4082 12.6373 -4.47206 27.0909 -0.0 -0.0 -0.0 0.0 -0.0 55.0345 26.1994 -13.1569 -14.7129 -0.32114 -2.22884 -10.8192 19.7397 -1.83646 11.2071 -0.0 -0.0 0.0 0.0 0.0 
1332.85218506 696.957 -1536.78911271 -17.0464167095 5.69945521072 0.467163302461 6.83385 0.125364 0.987444 6.83439 0.0622798 0.993419 6.83473 -0.0297135 0.994926 6.83337 0.127782 0.987134 -17.1918 12.9299 2.0755 -17.8429 23.6925 6.89961 -0.0 0.0 -0.0 5.13076 1.55198 9.95988 2.47044 6.54361 61.3414 2.90376 -55.1823 1.51771 74.5098 -3.22126 -8.2705 4.00356 31.021 35.6994 -0.0 0.0 -0.0 10.0581 0.0651104 -19.7782 24.3833 -62.1611 -25.6237 0.634322 17.4441 -0.0973157 18.2387 -0.278119 2.30341 -1.70378 -13.8742 4.95769 0.0 0.0 0.0 -8.01134 47.4036 16.5395 -12.673 0.310974 1.91604 35.4082 12.6373 -4.47206 27.0909 -0.0 -0.0 -0.0 0.0 -0.0 55.0345 26.1994 -13.1569 -14.7129 -0.32114 -2.22884 -10.8192 19.7397 -1.83646 11.2071 -0.0 -0.0 0.0 0.0 0.0 
1305.35292784 696.428 -1577.55901292 -17.8599277326 6.32728949166 0.687193551056 6.57541 0.130706 0.831081 6.57579 0.0775587 0.837713 6.57643 -0.00391306 0.841287 6.57546 0.128997 0.831348 -15.7336 13.1155 2.88303 -16.2616 23.4683 7.37679 -0.0 0.0 -0.0 6.39545 1.52143 12.4068 -0.866251 10.5816 59.5271 2.51041 -51.1881 1.20262 55.4965 -1.38979 -6.67731 3.40946 25.7229 31.0221 -0.0 0.0 -0.0 11.2054 1.83616 -22.2828 40.661 -67.5857 -15.4465 0.966008 25.5721 -0.21923 14.2921 -0.280425 1.79943 -4.22524 -19.2268 17.84 0.0 0.0 0.0 -10.99 45.2866 18.8968 -7.1943 0.228665 1.07971 22.681 9.99473 -3.06196 35.0679 -0.0 -0.0 -0.0 0.0 -0.0 56.1795 29.2481 -14.3904 -19.1154 -0.305116 -2.90396 -5.99903 18.8482 -1.00176 15.6419 -0.0 -0.0 0.0 0.0 0.0 
1280.82827321 693.898 -1611.08548054 -17.9218204336 9.31606816741 2.3149006796 6.13706 0.479902 0.603577 6.13715 0.440523 0.63289 6.14186 0.372091 0.675394 6.14154 0.474085 0.608156 -13.9457 12.8055 0.277119 -14.4182 24.2633 4.43042 -0.0 0.0 -0.0 4.78044 3.16395 9.33463 -5.34362 3.78735 63.9389 2.35363 -49.3734 1.08201 42.2544 -0.471689 -5.25653 1.84988 16.5193 18.4087 -0.0 0.0 -0.0 12.5043 14.8652 -25.3595 90.3212 -69.5672 30.9157 0.728554 19.8447 -0.127448 15.8133 -0.283648 1.9937 -3.97012 -15.5771 18.4872 0.0 0.0 0.0 -5.99122 43.6021 14.359 -14.9124 0.321536 2.25944 22.9053 12.3946 -3.09868 33.8208 -0.0 -0.0 -0.0 0.0 -0.0 55.6487 28.2504 -15.0628 -24.4296 -0.216821 -3.71434 3.29942 13.1019 0.514129 12.227 -0.0 -0.0 0.0 0.0 0.0 
1282.75866561 693.898 -1612.36186029 -17.8826811882 8.5450515414 2.062781539 6.13706 0.479902 0.603577 6.13715 0.440523 0.63289 6.14186 0.372091 0.675394 6.14154 0.474085 0.608156 -13.9457 12.8055 0.277119 -14.4182 24.2633 4.43042 -0.0 0.0 -0.0 4.78044 3.16395 9.33463 -5.34362 3.78735 63.9389 2.35363 -49.3734 1.08201 42.2544 -0.471689 -5.25653 1.84988 16.5193 18.4087 -0.0 0.0 -0.0 12.5043 14.8652 -25.3595 90.3212 -69.5672 30.9157 0.728554 19.8447 -0.127448 15.8133 -0.283648 1.9937 -3.97012 -15.5771 18.4872 0.0 0.0 0.0 -5.99122 43.6021 14.359 -14.9124 0.321536 2.25944 22.9053 12.3946 -3.09868 33.8208 -0.0 -0.0 -0.0 0.0 -0.0 55.6487 28.2504 -15.0628 -24.4296 -0.216821 -3.71434 3.29942 13.1019 0.514129 12.227 -0.0 -0.0 0.0 0.0 0.0 
1210.24979496 700.759 -1667.09934243 -18.2880959614 16.2159266113 6.97681823293 5.45552 0.354835 -0.171065 5.45547 0.365001 -0.148139 5.45459 0.379753 -0.104685 5.45475 0.358454 -0.163347 -9.13491 9.36467 -5.19204 -9.14163 21.1293 -2.879 -0.0 0.0 -0.0 3.25642 16.4198 7.03466 -4.28404 -6.38892 70.8228 1.15787 -29.8366 0.308492 27.2063 0.144217 -3.43992 1.72421 4.48306 13.3531 -0.0 0.0 -0.0 13.1229 26.6883 -25.8781 85.0259 -68.048 21.868 0.318465 8.96519 -0.0249665 44.8912 0.627813 5.55557 -3.58558 -10.3151 19.0338 0.0 0.0 0.0 9.18692 29.7626 5.04719 -34.661 -0.16249 5.23662 23.7409 28.0342 -3.41474 33.3692 -0.0 -0.0 -0.0 0.0 -0.0 48.5211 25.093 -12.2374 -25.8936 -0.179323 -3.93587 16.5769 4.14034 2.34504 6.71146 -0.0 -0.0 0.0 0.0 0.0 
1196.99578571 698.276 -1684.00132235 -18.0739484295 17.4047090635 6.31770419098 5.67761 0.377647 0.159365 5.67754 0.36674 0.183073 5.67877 0.343841 0.223132 5.6789 0.374765 0.166028 -8.41698 8.43179 -3.89657 -8.41018 18.4879 -1.94967 -0.0 0.0 -0.0 3.01737 19.812 6.76608 -6.23414 -5.97856 69.3137 1.04609 -27.3927 0.254946 23.3651 0.223357 -2.95571 2.0067 0.759621 13.8352 -0.0 0.0 -0.0 12.9519 26.6943 -25.4827 90.2933 -69.1594 23.625 0.365401 10.2602 -0.0328046 50.8077 1.02724 6.19867 -3.48832 -2.35335 22.7651 0.0 0.0 0.0 10.5533 26.1006 4.90819 -39.8987 -0.460337 5.98411 26.1554 27.4209 -3.70561 29.3688 -0.0 -0.0 -0.0 0.0 -0.0 46.2239 23.2618 -10.9266 -26.6402 -0.15802 -4.04848 24.4883 2.92343 3.31771 0.14139 -0.0 -0.0 0.0 0.0 0.0 
